# xmcd CD database file generated by OrangeCD 5.1
#
# Track frame offsets:
#	150
#	12300
#	25687
#	37125
#	49575
#	65212
#	77925
#	93450
#	106802
#	119662
#	131587
#	141677
#
# Disc length: 2039 seconds
#
# Revision: 1
# Processed by: cddbd v1.4PL0 Copyright (c) Steve Scherf et al.
# Submitted via: OrangeCD 5.1
#
DISCID=b007f50c
DTITLE=Charles River Valley Boys - Beatle Country
DYEAR=1995
DGENRE=bluegrass
TTITLE0=I've Just Seen A Face
TTITLE1=Baby's In Black
TTITLE2=I Feel Fine
TTITLE3=Yellow Submarine
TTITLE4=Ticket To Ride
TTITLE5=And Your Bird Can Sing
TTITLE6=What Goes On
TTITLE7=Norwegian Wood
TTITLE8=Paperback Writer
TTITLE9=She's A Woman
TTITLE10=I Saw Her Standing There
TTITLE11=Help!
EXTD=
EXTT0=
EXTT1=
EXTT2=
EXTT3=
EXTT4=
EXTT5=
EXTT6=
EXTT7=
EXTT8=
EXTT9=
EXTT10=
EXTT11=
PLAYORDER=
